# Tiled2Unity generated file. Do not modify by hand.
# Wavefront file for 'map1_mesh_0002.obj'

# Vertices (Count = 100)
v -48 -27 0
v -49 -27 0
v -49 -26 0
v -48 -26 0
v -47 -27 0
v -48 -27 0
v -48 -26 0
v -47 -26 0
v -46 -27 0
v -47 -27 0
v -47 -26 0
v -46 -26 0
v -45 -27 0
v -46 -27 0
v -46 -26 0
v -45 -26 0
v -44 -27 0
v -45 -27 0
v -45 -26 0
v -44 -26 0
v -48 -26 0
v -49 -26 0
v -49 -25 0
v -48 -25 0
v -47 -26 0
v -48 -26 0
v -48 -25 0
v -47 -25 0
v -46 -26 0
v -47 -26 0
v -47 -25 0
v -46 -25 0
v -45 -26 0
v -46 -26 0
v -46 -25 0
v -45 -25 0
v -44 -26 0
v -45 -26 0
v -45 -25 0
v -44 -25 0
v -48 -25 0
v -49 -25 0
v -49 -24 0
v -48 -24 0
v -47 -25 0
v -48 -25 0
v -48 -24 0
v -47 -24 0
v -46 -25 0
v -47 -25 0
v -47 -24 0
v -46 -24 0
v -45 -25 0
v -46 -25 0
v -46 -24 0
v -45 -24 0
v -44 -25 0
v -45 -25 0
v -45 -24 0
v -44 -24 0
v -48 -24 0
v -49 -24 0
v -49 -23 0
v -48 -23 0
v -47 -24 0
v -48 -24 0
v -48 -23 0
v -47 -23 0
v -46 -24 0
v -47 -24 0
v -47 -23 0
v -46 -23 0
v -45 -24 0
v -46 -24 0
v -46 -23 0
v -45 -23 0
v -44 -24 0
v -45 -24 0
v -45 -23 0
v -44 -23 0
v -48 -23 0
v -49 -23 0
v -49 -22 0
v -48 -22 0
v -47 -23 0
v -48 -23 0
v -48 -22 0
v -47 -22 0
v -46 -23 0
v -47 -23 0
v -47 -22 0
v -46 -22 0
v -45 -23 0
v -46 -23 0
v -46 -22 0
v -45 -22 0
v -44 -23 0
v -45 -23 0
v -45 -22 0
v -44 -22 0

# Texture cooridinates (Count = 36)
vt 0.4214876 0.5494297
vt 0.4380165 0.5494297
vt 0.4380165 0.5798479
vt 0.4214876 0.5798479
vt 0.4566116 0.5817491
vt 0.4731405 0.5817491
vt 0.4731405 0.6121673
vt 0.4566116 0.6121673
vt 0.4039256 0.5494297
vt 0.4204545 0.5494297
vt 0.4204545 0.5798479
vt 0.4039256 0.5798479
vt 0.4390496 0.5494297
vt 0.4555785 0.5494297
vt 0.4555785 0.5798479
vt 0.4390496 0.5798479
vt 0.3688017 0.5494297
vt 0.3853306 0.5494297
vt 0.3853306 0.5798479
vt 0.3688017 0.5798479
vt 0.4390496 0.5817491
vt 0.4555785 0.5817491
vt 0.4555785 0.6121673
vt 0.4390496 0.6121673
vt 0.4214876 0.5817491
vt 0.4380165 0.5817491
vt 0.4380165 0.6121673
vt 0.4214876 0.6121673
vt 0.4566116 0.5494297
vt 0.4731405 0.5494297
vt 0.4731405 0.5798479
vt 0.4566116 0.5798479
vt 0.4039256 0.5817491
vt 0.4204545 0.5817491
vt 0.4204545 0.6121673
vt 0.4039256 0.6121673

# Normal
vn 0 0 -1

# Mesh description
g map1_mesh_0002

# Faces
f 1/1/1 2/2/1 3/3/1 4/4/1
f 5/5/1 6/6/1 7/7/1 8/8/1
f 9/5/1 10/6/1 11/7/1 12/8/1
f 13/5/1 14/6/1 15/7/1 16/8/1
f 17/9/1 18/10/1 19/11/1 20/12/1
f 21/13/1 22/14/1 23/15/1 24/16/1
f 25/17/1 26/18/1 27/19/1 28/20/1
f 29/17/1 30/18/1 31/19/1 32/20/1
f 33/17/1 34/18/1 35/19/1 36/20/1
f 37/21/1 38/22/1 39/23/1 40/24/1
f 41/13/1 42/14/1 43/15/1 44/16/1
f 45/17/1 46/18/1 47/19/1 48/20/1
f 49/17/1 50/18/1 51/19/1 52/20/1
f 53/17/1 54/18/1 55/19/1 56/20/1
f 57/21/1 58/22/1 59/23/1 60/24/1
f 61/13/1 62/14/1 63/15/1 64/16/1
f 65/17/1 66/18/1 67/19/1 68/20/1
f 69/17/1 70/18/1 71/19/1 72/20/1
f 73/17/1 74/18/1 75/19/1 76/20/1
f 77/21/1 78/22/1 79/23/1 80/24/1
f 81/25/1 82/26/1 83/27/1 84/28/1
f 85/29/1 86/30/1 87/31/1 88/32/1
f 89/29/1 90/30/1 91/31/1 92/32/1
f 93/29/1 94/30/1 95/31/1 96/32/1
f 97/33/1 98/34/1 99/35/1 100/36/1

