# Tiled2Unity generated file. Do not modify by hand.
# Wavefront file for 'map1_mesh_0004.obj'

# Vertices (Count = 124)
v -35 -48 0
v -36 -48 0
v -36 -47 0
v -35 -47 0
v -43 -45 0
v -44 -45 0
v -44 -44 0
v -43 -44 0
v -43 -44 0
v -44 -44 0
v -44 -43 0
v -43 -43 0
v -27 -44 0
v -28 -44 0
v -28 -43 0
v -27 -43 0
v -27 -43 0
v -28 -43 0
v -28 -42 0
v -27 -42 0
v -35 -42 0
v -36 -42 0
v -36 -41 0
v -35 -41 0
v -21 -41 0
v -22 -41 0
v -22 -40 0
v -21 -40 0
v -35 -37 0
v -36 -37 0
v -36 -36 0
v -35 -36 0
v -27 -37 0
v -28 -37 0
v -28 -36 0
v -27 -36 0
v -44 -36 0
v -45 -36 0
v -45 -35 0
v -44 -35 0
v -35 -36 0
v -36 -36 0
v -36 -35 0
v -35 -35 0
v -27 -36 0
v -28 -36 0
v -28 -35 0
v -27 -35 0
v -44 -35 0
v -45 -35 0
v -45 -34 0
v -44 -34 0
v -39 -33 0
v -40 -33 0
v -40 -32 0
v -39 -32 0
v -24 -32 0
v -25 -32 0
v -25 -31 0
v -24 -31 0
v -44 -29 0
v -45 -29 0
v -45 -28 0
v -44 -28 0
v -33 -29 0
v -34 -29 0
v -34 -28 0
v -33 -28 0
v -44 -28 0
v -45 -28 0
v -45 -27 0
v -44 -27 0
v -33 -28 0
v -34 -28 0
v -34 -27 0
v -33 -27 0
v -22 -27 0
v -23 -27 0
v -23 -26 0
v -22 -26 0
v -48 -26 0
v -49 -26 0
v -49 -25 0
v -48 -25 0
v -44 -26 0
v -45 -26 0
v -45 -25 0
v -44 -25 0
v -22 -26 0
v -23 -26 0
v -23 -25 0
v -22 -25 0
v -48 -25 0
v -49 -25 0
v -49 -24 0
v -48 -24 0
v -44 -25 0
v -45 -25 0
v -45 -24 0
v -44 -24 0
v -33 -25 0
v -34 -25 0
v -34 -24 0
v -33 -24 0
v -46 -24 0
v -47 -24 0
v -47 -23 0
v -46 -23 0
v -48 -23 0
v -49 -23 0
v -49 -22 0
v -48 -22 0
v -44 -23 0
v -45 -23 0
v -45 -22 0
v -44 -22 0
v -48 -22 0
v -49 -22 0
v -49 -21 0
v -48 -21 0
v -44 -22 0
v -45 -22 0
v -45 -21 0
v -44 -21 0

# Texture cooridinates (Count = 24)
vt 0.4214876 0.6787072
vt 0.4380165 0.6787072
vt 0.4380165 0.7091255
vt 0.4214876 0.7091255
vt 0.4039256 0.6140684
vt 0.4204545 0.6140684
vt 0.4204545 0.6444867
vt 0.4039256 0.6444867
vt 0.4039256 0.6463878
vt 0.4204545 0.6463878
vt 0.4204545 0.6768061
vt 0.4039256 0.6768061
vt 0.3688017 0.3231939
vt 0.3853306 0.3231939
vt 0.3853306 0.3536122
vt 0.3688017 0.3536122
vt 0.3688017 0.3555133
vt 0.3853306 0.3555133
vt 0.3853306 0.3859316
vt 0.3688017 0.3859316
vt 0.5971074 0.8403042
vt 0.6136364 0.8403042
vt 0.6136364 0.8707224
vt 0.5971074 0.8707224

# Normal
vn 0 0 -1

# Mesh description
g map1_mesh_0004

# Faces
f 1/1/1 2/2/1 3/3/1 4/4/1
f 5/5/1 6/6/1 7/7/1 8/8/1
f 9/9/1 10/10/1 11/11/1 12/12/1
f 13/5/1 14/6/1 15/7/1 16/8/1
f 17/9/1 18/10/1 19/11/1 20/12/1
f 21/1/1 22/2/1 23/3/1 24/4/1
f 25/1/1 26/2/1 27/3/1 28/4/1
f 29/5/1 30/6/1 31/7/1 32/8/1
f 33/5/1 34/6/1 35/7/1 36/8/1
f 37/5/1 38/6/1 39/7/1 40/8/1
f 41/9/1 42/10/1 43/11/1 44/12/1
f 45/9/1 46/10/1 47/11/1 48/12/1
f 49/9/1 50/10/1 51/11/1 52/12/1
f 53/1/1 54/2/1 55/3/1 56/4/1
f 57/1/1 58/2/1 59/3/1 60/4/1
f 61/5/1 62/6/1 63/7/1 64/8/1
f 65/5/1 66/6/1 67/7/1 68/8/1
f 69/9/1 70/10/1 71/11/1 72/12/1
f 73/9/1 74/10/1 75/11/1 76/12/1
f 77/5/1 78/6/1 79/7/1 80/8/1
f 81/13/1 82/14/1 83/15/1 84/16/1
f 85/13/1 86/14/1 87/15/1 88/16/1
f 89/9/1 90/10/1 91/11/1 92/12/1
f 93/17/1 94/18/1 95/19/1 96/20/1
f 97/17/1 98/18/1 99/19/1 100/20/1
f 101/1/1 102/2/1 103/3/1 104/4/1
f 105/21/1 106/22/1 107/23/1 108/24/1
f 109/13/1 110/14/1 111/15/1 112/16/1
f 113/13/1 114/14/1 115/15/1 116/16/1
f 117/17/1 118/18/1 119/19/1 120/20/1
f 121/17/1 122/18/1 123/19/1 124/20/1

